<?xml version="1.0" encoding="UTF-8"?>
<svg version="1.1" xmlns="http://www.w3.org/2000/svg" width="500" height="500">
<path d="M0 0 C165 0 330 0 500 0 C500 165 500 330 500 500 C335 500 170 500 0 500 C0 335 0 170 0 0 Z " fill="#FEFEFE" transform="translate(0,0)"/>
<path d="M0 0 C3.47075425 2.86804843 6.75001135 5.8856449 10 9 C10.83402344 9.75925781 11.66804687 10.51851562 12.52734375 11.30078125 C31.35399333 29.02510004 42.16327781 55.62776969 43.25390625 81.21875 C44.06598027 110.35438138 35.1805947 134.14570941 19 158 C19.76666992 158.26216309 20.53333984 158.52432617 21.32324219 158.79443359 C24.79982559 159.98506599 28.27492126 161.17998347 31.75 162.375 C32.9565625 162.7875 34.163125 163.2 35.40625 163.625 C36.56640625 164.02460938 37.7265625 164.42421875 38.921875 164.8359375 C39.99018555 165.20251465 41.05849609 165.5690918 42.15917969 165.94677734 C45 167 45 167 49 169 C49 178.9 49 188.8 49 199 C51.475 199.495 53.95 199.99 56.5 200.5 C68.30346687 203.00029703 79.62852903 207.02128823 91 211 C91 211.66 91 212.32 91 213 C88.78442383 214.55639648 88.78442383 214.55639648 85.70703125 216.37109375 C84.60166016 217.02787109 83.49628906 217.68464844 82.35742188 218.36132812 C81.17588814 219.05356789 79.99424648 219.74562348 78.8125 220.4375 C77.64999024 221.12497445 76.48787567 221.81311763 75.32617188 222.50195312 C73.17359486 223.77602914 71.01922638 225.04708648 68.86254883 226.31420898 C66.97769762 227.42422157 65.10702777 228.55873256 63.25268555 229.71899414 C61 231 61 231 59 231 C64.25766175 237.75077415 69.75390371 244.24415904 75.43041992 250.64477539 C78.61734956 254.27164668 81.41999676 257.91708225 84 262 C79.34000409 260.45936557 74.68910581 258.89735485 70.0546875 257.28125 C50.85401476 250.63323557 33.26631369 248.36508849 13 247 C13 234.79 13 222.58 13 210 C10.36 209.67 7.72 209.34 5 209 C2.90316666 208.44449565 0.81875694 207.83983416 -1.25 207.1875 C-42.95953275 195.04421831 -87.97552186 194.54399621 -130.0546875 204.81640625 C-135.00832905 206.00199345 -140.00537003 207.00107401 -145 208 C-145 220.87 -145 233.74 -145 247 C-150.94 247.33 -156.88 247.66 -163 248 C-166.72905791 248.50047882 -170.32507862 249.02588637 -174 249.75 C-174.91370361 249.924104 -175.82740723 250.09820801 -176.76879883 250.27758789 C-188.93657892 252.67566379 -200.94920626 255.46764644 -212.03125 261.1796875 C-213.00578125 261.58574219 -213.00578125 261.58574219 -214 262 C-214.66 261.67 -215.32 261.34 -216 261 C-214.78376953 259.60201172 -214.78376953 259.60201172 -213.54296875 258.17578125 C-207.91806159 251.70303972 -202.30493708 245.22046505 -196.75 238.6875 C-196.28489014 238.14327393 -195.81978027 237.59904785 -195.34057617 237.03833008 C-192.91742995 234.19232483 -192.91742995 234.19232483 -191 231 C-192.24523437 230.65195312 -192.24523437 230.65195312 -193.515625 230.296875 C-197.65550168 228.75602404 -201.05851225 226.64380959 -204.75 224.25 C-206.16086772 223.34803383 -207.57232617 222.446991 -208.984375 221.546875 C-210.00821289 220.89235352 -210.00821289 220.89235352 -211.05273438 220.22460938 C-214.4330041 218.09880284 -217.90007042 216.12232858 -221.375 214.15625 C-222.179375 213.58390625 -222.179375 213.58390625 -223 213 C-223 212.34 -223 211.68 -223 211 C-188.41921397 199 -188.41921397 199 -179 199 C-179 188.77 -179 178.54 -179 168 C-169.73741889 164.19108814 -160.63284396 160.76152356 -151 158 C-152.66369965 154.3661297 -154.87177412 151.23097825 -157.125 147.9375 C-166.20629504 134.09476095 -171.02453686 119.17172622 -174 103 C-174.28617188 101.82244141 -174.28617188 101.82244141 -174.578125 100.62109375 C-178.91262693 73.6909938 -170.39453436 45.71501143 -154.7578125 23.8671875 C-141.97372825 6.49778363 -126.56951104 -5.23913678 -107 -14 C-106.09121094 -14.40992188 -105.18242187 -14.81984375 -104.24609375 -15.2421875 C-70.27669623 -28.9575311 -28.8876835 -22.11971193 0 0 Z " fill="#DCDCDC" transform="translate(308,159)"/>
<path d="M0 0 C3.47075425 2.86804843 6.75001135 5.8856449 10 9 C10.83402344 9.75925781 11.66804687 10.51851562 12.52734375 11.30078125 C31.35399333 29.02510004 42.16327781 55.62776969 43.25390625 81.21875 C44.06598027 110.35438138 35.1805947 134.14570941 19 158 C19.76666992 158.26216309 20.53333984 158.52432617 21.32324219 158.79443359 C24.79982559 159.98506599 28.27492126 161.17998347 31.75 162.375 C32.9565625 162.7875 34.163125 163.2 35.40625 163.625 C36.56640625 164.02460938 37.7265625 164.42421875 38.921875 164.8359375 C39.99018555 165.20251465 41.05849609 165.5690918 42.15917969 165.94677734 C45 167 45 167 49 169 C49 178.9 49 188.8 49 199 C51.475 199.495 53.95 199.99 56.5 200.5 C68.30346687 203.00029703 79.62852903 207.02128823 91 211 C91 211.66 91 212.32 91 213 C88.78442383 214.55639648 88.78442383 214.55639648 85.70703125 216.37109375 C84.60166016 217.02787109 83.49628906 217.68464844 82.35742188 218.36132812 C81.17588814 219.05356789 79.99424648 219.74562348 78.8125 220.4375 C77.64999024 221.12497445 76.48787567 221.81311763 75.32617188 222.50195312 C73.17359486 223.77602914 71.01922638 225.04708648 68.86254883 226.31420898 C66.97769762 227.42422157 65.10702777 228.55873256 63.25268555 229.71899414 C61 231 61 231 59 231 C64.25766175 237.75077415 69.75390371 244.24415904 75.43041992 250.64477539 C78.61734956 254.27164668 81.41999676 257.91708225 84 262 C79.34000409 260.45936557 74.68910581 258.89735485 70.0546875 257.28125 C50.85401476 250.63323557 33.26631369 248.36508849 13 247 C13 234.79 13 222.58 13 210 C10.36 209.67 7.72 209.34 5 209 C2.90316666 208.44449565 0.81875694 207.83983416 -1.25 207.1875 C-42.95953275 195.04421831 -87.97552186 194.54399621 -130.0546875 204.81640625 C-135.00832905 206.00199345 -140.00537003 207.00107401 -145 208 C-145 220.87 -145 233.74 -145 247 C-150.94 247.33 -156.88 247.66 -163 248 C-166.72905791 248.50047882 -170.32507862 249.02588637 -174 249.75 C-174.91370361 249.924104 -175.82740723 250.09820801 -176.76879883 250.27758789 C-188.93657892 252.67566379 -200.94920626 255.46764644 -212.03125 261.1796875 C-213.00578125 261.58574219 -213.00578125 261.58574219 -214 262 C-214.66 261.67 -215.32 261.34 -216 261 C-214.78376953 259.60201172 -214.78376953 259.60201172 -213.54296875 258.17578125 C-207.91806159 251.70303972 -202.30493708 245.22046505 -196.75 238.6875 C-196.28489014 238.14327393 -195.81978027 237.59904785 -195.34057617 237.03833008 C-192.91742995 234.19232483 -192.91742995 234.19232483 -191 231 C-192.24523437 230.65195312 -192.24523437 230.65195312 -193.515625 230.296875 C-197.65550168 228.75602404 -201.05851225 226.64380959 -204.75 224.25 C-206.16086772 223.34803383 -207.57232617 222.446991 -208.984375 221.546875 C-210.00821289 220.89235352 -210.00821289 220.89235352 -211.05273438 220.22460938 C-214.4330041 218.09880284 -217.90007042 216.12232858 -221.375 214.15625 C-222.179375 213.58390625 -222.179375 213.58390625 -223 213 C-223 212.34 -223 211.68 -223 211 C-188.41921397 199 -188.41921397 199 -179 199 C-179 188.77 -179 178.54 -179 168 C-169.73741889 164.19108814 -160.63284396 160.76152356 -151 158 C-152.66369965 154.3661297 -154.87177412 151.23097825 -157.125 147.9375 C-166.20629504 134.09476095 -171.02453686 119.17172622 -174 103 C-174.28617188 101.82244141 -174.28617188 101.82244141 -174.578125 100.62109375 C-178.91262693 73.6909938 -170.39453436 45.71501143 -154.7578125 23.8671875 C-141.97372825 6.49778363 -126.56951104 -5.23913678 -107 -14 C-106.09121094 -14.40992188 -105.18242187 -14.81984375 -104.24609375 -15.2421875 C-70.27669623 -28.9575311 -28.8876835 -22.11971193 0 0 Z M-136 24 C-136 24.66 -136 25.32 -136 26 C-136.66 26 -137.32 26 -138 26 C-139.87095696 28.40121207 -141.60798964 30.79639844 -143.3125 33.3125 C-143.81015869 34.04509033 -144.30781738 34.77768066 -144.82055664 35.5324707 C-151.19257101 45.08682355 -155.02482877 54.92194307 -158 66 C-158.22816406 66.8353125 -158.45632812 67.670625 -158.69140625 68.53125 C-163.78844483 91.05802193 -159.01936987 117.18189093 -146.7578125 136.70703125 C-144.64020472 139.90873247 -142.33047969 142.9501301 -140 146 C-139.49855469 146.78890625 -138.99710938 147.5778125 -138.48046875 148.390625 C-137.09498021 150.41894828 -136.09793491 151.72112187 -134 153 C-130.16740252 153.4075937 -126.75235263 152.78096994 -123 152 C-86.26874054 144.38646441 -43.49275421 142.90013307 -6.9440918 152.40307617 C-3.23402598 153.15530363 0.46035453 153.90085639 3.8359375 151.92578125 C22.05666083 132.8263936 28.54201902 107.82425906 28.21484375 82.14453125 C27.46536143 57.06713222 16.50974005 36.26424772 -1 19 C-1.73863281 18.25105469 -2.47726562 17.50210938 -3.23828125 16.73046875 C-13.01066249 7.39977705 -25.2754707 1.21768106 -38 -3 C-39.155 -3.391875 -40.31 -3.78375 -41.5 -4.1875 C-76.75756655 -12.37229224 -110.87520867 -2.14533411 -136 24 Z " fill="#080704" transform="translate(308,159)"/>
<path d="M0 0 C1.75 0.2421875 1.75 0.2421875 4 0.875 C15.69195715 3.48450928 28.38837672 2.55000354 40 0 C45.87627568 6.68679647 47.59322605 12.15681318 47.3515625 20.93359375 C46.49735136 28.38421313 43.43432956 34.80719619 38 40 C31.30595944 45.1643751 24.35206299 46.36223322 16 46 C9.57583294 44.82239561 3.46741224 42.1537907 -0.62890625 36.91796875 C-6.28779107 28.69554092 -8.17533775 22.05437443 -7 12 C-5.40225097 7.43839681 -3.43248062 3.43248062 0 0 Z " fill="#070604" transform="translate(222,246)"/>
<path d="M0 0 C0.6106279 0.24036987 1.2212558 0.48073975 1.85038757 0.72839355 C3.12963162 1.23330143 4.40776456 1.7410328 5.68481445 2.25146484 C7.64603337 3.03497119 9.61073661 3.80917051 11.57617188 4.58203125 C21.17272041 8.37975166 21.17272041 8.37975166 22.32421875 9.53125 C22.41188987 11.60387076 22.43117748 13.67945294 22.421875 15.75390625 C22.41704102 17.64399414 22.41704102 17.64399414 22.41210938 19.57226562 C22.40375278 20.91276109 22.39528782 22.25325588 22.38671875 23.59375 C22.38170535 24.93814942 22.37714217 26.2825506 22.37304688 27.62695312 C22.36121363 30.92842941 22.34472846 34.22981803 22.32421875 37.53125 C20.34421875 37.03625 20.34421875 37.03625 18.32421875 36.53125 C18.32421875 28.94125 18.32421875 21.35125 18.32421875 13.53125 C16.40738281 14.36011719 14.49054688 15.18898437 12.515625 16.04296875 C10.63177205 16.83416131 8.74406377 17.61536566 6.85571289 18.39575195 C5.55481505 18.93949983 4.25810288 19.4933849 2.96606445 20.05786133 C-9.15270841 25.33848447 -9.15270841 25.33848447 -14.26953125 23.6875 C-15.75161675 22.99666668 -17.21933565 22.27461688 -18.67578125 21.53125 C-20.78643871 20.69117125 -22.90282951 19.86541552 -25.0234375 19.05078125 C-27.26279025 18.15109994 -29.50105627 17.24870944 -31.73828125 16.34375 C-33.46594727 15.64862305 -33.46594727 15.64862305 -35.22851562 14.93945312 C-38.04523499 13.8057528 -40.86095272 12.66963499 -43.67578125 11.53125 C-43.67578125 10.87125 -43.67578125 10.21125 -43.67578125 9.53125 C-40.01059986 7.92367475 -36.34337408 6.32081515 -32.67578125 4.71875 C-31.64582031 4.26693359 -30.61585938 3.81511719 -29.5546875 3.34960938 C-26.60152439 2.06112738 -23.64033653 0.79325911 -20.67578125 -0.46875 C-19.90878906 -0.80825684 -19.14179688 -1.14776367 -18.3515625 -1.49755859 C-11.45253429 -4.38365206 -6.72250661 -2.66018713 0 0 Z " fill="#050505" transform="translate(252.67578125,203.46875)"/>
<path d="M0 0 C0.99 0.33 1.98 0.66 3 1 C4.16796875 3.3984375 4.16796875 3.3984375 5.1875 6.375 C5.53167969 7.35210937 5.87585938 8.32921875 6.23046875 9.3359375 C7 12 7 12 7 15 C12.28 15 17.56 15 23 15 C21.81562131 19.73751475 20.87622747 20.15741989 16.9375 22.75 C16.01839844 23.36359375 15.09929687 23.9771875 14.15234375 24.609375 C13.44207031 25.06828125 12.73179687 25.5271875 12 26 C12.2165625 26.81984375 12.433125 27.6396875 12.65625 28.484375 C12.9346875 29.56203125 13.213125 30.6396875 13.5 31.75 C13.7784375 32.81734375 14.056875 33.8846875 14.34375 34.984375 C15 38 15 38 15 42 C10.12744442 41.69546528 7.55525742 39.20157064 4.0625 36.08203125 C2.00278017 34.70766361 2.00278017 34.70766361 -0.44921875 35.62890625 C-3.01326979 37.00713277 -5.41283926 38.47747173 -7.8125 40.125 C-8.60269531 40.66382813 -9.39289063 41.20265625 -10.20703125 41.7578125 C-10.79871094 42.16773438 -11.39039063 42.57765625 -12 43 C-13.21376973 38.40045155 -12.54886336 36.24239752 -10.59375 32.0625 C-9.78698082 29.26003865 -9.99350894 27.7386924 -11 25 C-13.27895027 22.99741227 -13.27895027 22.99741227 -16.0625 21.375 C-18.84765625 19.6484375 -18.84765625 19.6484375 -21 18 C-21 17.01 -21 16.02 -21 15 C-13.08 14.505 -13.08 14.505 -5 14 C-4.0409375 11.091875 -4.0409375 11.091875 -3.0625 8.125 C-1.125 2.25 -1.125 2.25 0 0 Z " fill="#EDB95C" transform="translate(240,76)"/>
<path d="M0 0 C5.62382531 1.8111799 11.05242499 3.80639305 16.4453125 6.23046875 C23.47389122 8.34764001 28.87313884 6.21849151 35.3125 3.5 C36.91163375 2.84100932 38.51184498 2.18462533 40.11328125 1.53125 C41.16189331 1.09135742 41.16189331 1.09135742 42.23168945 0.64257812 C44 0 44 0 46 0 C46.13487595 2.77245014 46.23400807 5.53837088 46.3125 8.3125 C46.35439453 9.09818359 46.39628906 9.88386719 46.43945312 10.69335938 C46.4862136 12.89110158 46.44773871 14.84729979 46 17 C40.21937623 22.48991541 30.65792572 22.35980027 23.125 22.3125 C22.24529541 22.30976074 21.36559082 22.30702148 20.45922852 22.30419922 C12.86964721 22.18184333 6.40577231 21.27051488 0 17 C-0.2208564 14.04935852 -0.28060989 11.31631769 -0.1875 8.375 C-0.17396484 7.57320312 -0.16042969 6.77140625 -0.14648438 5.9453125 C-0.11109051 3.96325622 -0.05728234 1.98154449 0 0 Z " fill="#030303" transform="translate(219,223)"/>
<path d="M0 0 C0.99 0.33 1.98 0.66 3 1 C4.33859334 3.9140571 5.08761099 6.9152562 6 10 C9.96 10.33 13.92 10.66 18 11 C15.80682128 15.38635744 14.08649371 16.51256905 10 19 C10.66 22.96 11.32 26.92 12 31 C8.60406522 31 7.93380119 30.47834052 5.3125 28.5 C4.68988281 28.0359375 4.06726563 27.571875 3.42578125 27.09375 C2.95527344 26.7328125 2.48476563 26.371875 2 26 C-1.77727089 27.81309003 -5.37269822 29.9073259 -9 32 C-10 29 -10 29 -9 26.125 C-7.89219527 22.66311022 -7.55151821 21.32298764 -9 18 C-10.76011375 16.54306374 -12.56033218 15.31383907 -14.50390625 14.11328125 C-14.99761719 13.74589844 -15.49132812 13.37851563 -16 13 C-16 12.34 -16 11.68 -16 11 C-10.06 10.505 -10.06 10.505 -4 10 C-2.68 6.7 -1.36 3.4 0 0 Z " fill="#EDBA5E" transform="translate(289,98)"/>
<path d="M0 0 C0.66 0 1.32 0 2 0 C3.32 3.63 4.64 7.26 6 11 C11.445 11.495 11.445 11.495 17 12 C17 12.99 17 13.98 17 15 C15.43359375 15.96484375 15.43359375 15.96484375 13.4375 16.9375 C11.41047392 18.1096746 11.41047392 18.1096746 10 20 C9.66669403 24.11794147 10.23209096 27.95395825 11 32 C7.13857796 31.21616433 4.98671756 29.57189568 2 27 C-2.01409454 28.37626099 -4.72309126 30.34304697 -8 33 C-8.66 33 -9.32 33 -10 33 C-9.39174965 28.65535464 -8.73832608 24.32448133 -8 20 C-8.5775 19.59007813 -9.155 19.18015625 -9.75 18.7578125 C-10.4925 18.21898438 -11.235 17.68015625 -12 17.125 C-12.7425 16.59132813 -13.485 16.05765625 -14.25 15.5078125 C-15.11625 14.76144531 -15.11625 14.76144531 -16 14 C-16 13.34 -16 12.68 -16 12 C-12.04 12 -8.08 12 -4 12 C-3.525625 10.205625 -3.05125 8.41125 -2.5625 6.5625 C-1.125 1.125 -1.125 1.125 0 0 Z " fill="#EDBA5E" transform="translate(192,97)"/>
<path d="M0 0 C0.99 0 1.98 0 3 0 C7.00132997 7.65302917 9.27120759 14.3695636 10 23 C10.54527344 22.61328125 11.09054687 22.2265625 11.65234375 21.828125 C16.76874886 18.29474438 22.0042961 14.83800648 28 13 C28.66 13.33 29.32 13.66 30 14 C27.63198558 20.8155542 22.62616954 26.6553005 16.5 30.5 C12.48036192 32.22270203 9.34109303 32.69536189 5 33 C4.17834491 31.29605107 3.36809355 29.58660102 2.5625 27.875 C2.11003906 26.92367188 1.65757812 25.97234375 1.19140625 24.9921875 C-1.02473767 19.42639655 -1.1366705 14.13361741 -1.125 8.1875 C-1.12886719 7.50751953 -1.13273437 6.82753906 -1.13671875 6.12695312 C-1.12674825 1.12674825 -1.12674825 1.12674825 0 0 Z " fill="#EDBB61" transform="translate(359,284)"/>
<path d="M0 0 C0.99 0 1.98 0 3 0 C3 6.27 3 12.54 3 19 C4.98 17.68 6.96 16.36 9 15 C13.93827706 12.79423625 18.55127629 11.58086741 24 12 C21.22411686 18.57987115 14.25928074 23.92660558 8.0390625 27.2578125 C3.5374265 28.89633901 -1.26630813 29.40926013 -6 30 C-9.097793 22.06190544 -8.1647148 16.34945388 -5.14453125 8.6015625 C-3.70787511 5.33598916 -2.29367411 2.73761103 0 0 Z " fill="#EDBB60" transform="translate(125,150)"/>
<path d="M0 0 C1.859375 0.16015625 1.859375 0.16015625 4 1 C8.31940493 9.09221849 9.43647766 18.31483803 7 27.125 C6.67 28.07375 6.34 29.0225 6 30 C-6.22063048 30 -15.49281524 21.8349549 -24 14 C-23.67 13.01 -23.34 12.02 -23 11 C-15.91787301 12.00957981 -7.27178234 13.72821766 -2 19 C-1.90912109 17.19402344 -1.90912109 17.19402344 -1.81640625 15.3515625 C-1.73200268 13.77602923 -1.64735459 12.20050904 -1.5625 10.625 C-1.52318359 9.8309375 -1.48386719 9.036875 -1.44335938 8.21875 C-1.11328125 2.2265625 -1.11328125 2.2265625 0 0 Z " fill="#EDBB60" transform="translate(370,169)"/>
<path d="M0 0 C2.95620111 0.31906135 3.87795233 0.85812602 5.8515625 3.15234375 C9.8022335 9.35681165 12.21922159 14.65430928 13 22 C13.40089844 21.50371094 13.80179687 21.00742187 14.21484375 20.49609375 C18.50674454 15.36722365 23.13996555 10.35021349 29 7 C29.99 7.33 30.98 7.66 32 8 C29.56766204 17.79884723 24.57406378 24.97251132 15.89453125 30.22265625 C14 31 14 31 10 31 C2.20451706 22.03519462 -0.20017051 11.60988935 0 0 Z " fill="#EDBA60" transform="translate(365,263)"/>
<path d="M0 0 C-0.72686821 9.8127209 -4.16068116 18.41617057 -10.625 25.875 C-12 27 -12 27 -14 27 C-14.33 27.99 -14.66 28.98 -15 30 C-19.47126407 28.59474558 -21.8715744 26.44928976 -25 23 C-25.70125 22.2575 -26.4025 21.515 -27.125 20.75 C-30.7953673 15.36679463 -32.50233165 9.53031144 -32 3 C-28.00084612 4.58474629 -25.67236009 7.22366229 -22.8125 10.375 C-21.93207031 11.33148438 -21.05164063 12.28796875 -20.14453125 13.2734375 C-18.23031995 15.70717063 -17.36380486 16.98969315 -17 20 C-16.34 20 -15.68 20 -15 20 C-14.90203125 19.11570312 -14.8040625 18.23140625 -14.703125 17.3203125 C-13.34669747 10.91496027 -8.89900893 5.77240833 -4.1875 1.375 C-2 0 -2 0 0 0 Z " fill="#EDBA60" transform="translate(117,239)"/>
<path d="M0 0 C1.80859375 0.2109375 1.80859375 0.2109375 4 1 C5.59765625 3.0390625 5.59765625 3.0390625 7.0625 5.625 C7.82626953 6.97078125 7.82626953 6.97078125 8.60546875 8.34375 C10.26789508 11.51027634 11.69718087 14.67057332 13 18 C13.474375 17.01 13.94875 16.02 14.4375 15 C18.12181241 8.53929502 23.98493151 3.4373342 31 1 C30.60773657 10.02205878 25.07949877 17.60873206 19 24 C17.36021682 25.04349839 15.69905634 26.05607981 14 27 C13.67 27.66 13.34 28.32 13 29 C7.52085974 27.29765252 6.00200759 24.56271278 3.29296875 19.72265625 C0.2228771 13.2578409 -0.25707701 7.06961767 0 0 Z " fill="#EDBA60" transform="translate(88,215)"/>
<path d="M0 0 C0.99 0 1.98 0 3 0 C3.69770379 10.46555692 -0.0103714 20.6804952 -6.25 29 C-7.11625 29.99 -7.11625 29.99 -8 31 C-14.83422971 30.19597297 -19.39137306 26.15199677 -23.60546875 21.00390625 C-25.95787495 17.62355784 -27.8831246 13.97453591 -29 10 C-28.67 9.01 -28.34 8.02 -28 7 C-21.19256003 10.98513835 -15.77488087 14.67650911 -11 21 C-10.78085938 20.31035156 -10.56171875 19.62070312 -10.3359375 18.91015625 C-8.02278177 12.0553167 -5.21560373 5.21560373 0 0 Z " fill="#EDBA5F" transform="translate(116,263)"/>
<path d="M0 0 C0.99 0 1.98 0 3 0 C4.14982602 4.09003859 4.11094256 8.03177051 4.0625 12.25 C4.05798828 12.99507812 4.05347656 13.74015625 4.04882812 14.5078125 C4.03709246 16.3385764 4.0191585 18.16929873 4 20 C4.44988281 19.60167969 4.89976563 19.20335937 5.36328125 18.79296875 C11.41237075 13.81065255 18.06842211 11 26 11 C26 15 26 15 23.76953125 17.25390625 C22.79371094 18.01574219 21.81789062 18.77757812 20.8125 19.5625 C19.84957031 20.32691406 18.88664062 21.09132812 17.89453125 21.87890625 C13.68386312 24.96445658 9.90242639 27.2346199 4.875 28.6875 C4.02679688 28.93886719 3.17859375 29.19023437 2.3046875 29.44921875 C0 30 0 30 -3 30 C-6.49671164 24.43323507 -5.54235059 17.30402807 -5 11 C-2.75634518 2.75634518 -2.75634518 2.75634518 0 0 Z " fill="#EDBA5F" transform="translate(111,169)"/>
<path d="M0 0 C0.99 0 1.98 0 3 0 C3.52444646 11.47955019 2.45784212 18.92070321 -5.37890625 27.56640625 C-7 29 -7 29 -9 29 C-10.02791624 28.02871827 -11.02437958 27.0237992 -12 26 C-13.1022142 25.14331536 -14.20647856 24.28926364 -15.3125 23.4375 C-19.74187976 19.68235987 -22.27612017 15.06098517 -25 10 C-25.639375 8.865625 -26.27875 7.73125 -26.9375 6.5625 C-28 4 -28 4 -27 1 C-23.12264183 2.34032134 -20.48528099 4.01494784 -17.4375 6.75 C-16.69371094 7.40484375 -15.94992187 8.0596875 -15.18359375 8.734375 C-12.72390835 11.28646361 -10.88605056 14.00626896 -9 17 C-8.51789063 16.02417969 -8.03578125 15.04835937 -7.5390625 14.04296875 C-6.90114842 12.75775951 -6.26312169 11.47260618 -5.625 10.1875 C-5.30789063 9.54490234 -4.99078125 8.90230469 -4.6640625 8.24023438 C-3.23541389 5.36805539 -1.78214527 2.6732179 0 0 Z " fill="#EDBA5F" transform="translate(392,215)"/>
<path d="M0 0 C5.12990442 0.8980139 7.77409707 4.11163487 11 8 C16 15.55 16 15.55 16 20 C16.66 20 17.32 20 18 20 C18.23976563 19.28199219 18.47953125 18.56398438 18.7265625 17.82421875 C20.18865536 14.58160176 21.9834015 12.43849105 24.375 9.8125 C25.14585937 8.95269531 25.91671875 8.09289062 26.7109375 7.20703125 C28.77685184 5.21515138 30.3704081 4.07465057 33 3 C33.73520535 9.98445083 31.12229966 15.98362516 27.1640625 21.609375 C24.32964737 25.01936102 21.94044294 27.53937489 17.9375 29.5 C13.15849997 28.68655319 10.83430793 25.78350239 8 22 C4.08156718 15.47279924 0 7.68590986 0 0 Z " fill="#EDBA5E" transform="translate(366,239)"/>
<path d="M0 0 C0.99 0 1.98 0 3 0 C3.79550392 1.39365 4.58621838 2.79003431 5.375 4.1875 C5.81585938 4.96480469 6.25671875 5.74210938 6.7109375 6.54296875 C9.28909065 11.45708491 10.25832727 15.02320713 10.1875 20.625 C10.18105469 21.75164062 10.17460937 22.87828125 10.16796875 24.0390625 C10 27 10 27 9 30 C-2.36897524 28.86700934 -10.7196147 24.84457555 -19 17 C-19 16.34 -19 15.68 -19 15 C-19.66 15 -20.32 15 -21 15 C-21 14.01 -21 13.02 -21 12 C-12.59427904 12.34449676 -6.946536 14.368976 0 19 C0 12.73 0 6.46 0 0 Z " fill="#EDBA5E" transform="translate(356,150)"/>
<path d="M0 0 C0.99 0 1.98 0 3 0 C3.08184423 2.97973615 3.14089764 5.95716832 3.1875 8.9375 C3.21263672 9.76830078 3.23777344 10.59910156 3.26367188 11.45507812 C3.3344254 17.51629672 2.24563261 22.38591848 0 28 C-0.391875 29.010625 -0.78375 30.02125 -1.1875 31.0625 C-1.455625 31.701875 -1.72375 32.34125 -2 33 C-10.13359826 32.70423279 -15.25521035 29.5837987 -21.08984375 24 C-24.44812251 20.37388305 -26.30757498 17.99411543 -27 13 C-22.97351715 13.59922249 -19.98182467 14.89333308 -16.4375 16.875 C-15.50808594 17.38804687 -14.57867187 17.90109375 -13.62109375 18.4296875 C-11.28314243 19.83036773 -9.1407175 21.31764789 -7 23 C-6.91363281 22.17757813 -6.82726562 21.35515625 -6.73828125 20.5078125 C-5.76441502 12.77048995 -3.97207685 6.71614521 0 0 Z " fill="#EDBA5E" transform="translate(122,284)"/>
<path d="M0 0 C1.32 0.33 2.64 0.66 4 1 C5.32 6.28 6.64 11.56 8 17 C9.98 15.68 11.96 14.36 14 13 C18.47092037 10.70412197 23.06195485 10.4088142 28 10 C27.16922667 15.73872652 22.38974974 18.70115533 18 22 C9.558753 27 9.558753 27 6 27 C5.67 28.32 5.34 29.64 5 31 C2 30 2 30 0.83203125 28.42578125 C-3.03904857 20.40181887 -3.40778098 11.20926261 -1 2.625 C-0.67 1.75875 -0.34 0.8925 0 0 Z " fill="#EDBA5F" transform="translate(99,189)"/>
<path d="M0 0 C0.99 0.33 1.98 0.66 3 1 C6.00445759 7.89613756 6.20888381 15.874027 4.1015625 23.06640625 C3.15238439 25.43261977 2.15009396 27.72548381 1 30 C-0.32 30 -1.64 30 -3 30 C-3 29.01 -3 28.02 -3 27 C-3.94875 26.814375 -4.8975 26.62875 -5.875 26.4375 C-13.17625449 24.35990726 -20.17664228 18.78802927 -25 13 C-25 12.01 -25 11.02 -25 10 C-17.54928441 11.06212329 -11.56342244 13.34124111 -5 17 C-4.72285156 15.85660156 -4.44570313 14.71320313 -4.16015625 13.53515625 C-3.79445622 12.04422535 -3.42856071 10.55334239 -3.0625 9.0625 C-2.88009766 8.30775391 -2.69769531 7.55300781 -2.50976562 6.77539062 C-1.11328125 1.11328125 -1.11328125 1.11328125 0 0 Z " fill="#EDBA5F" transform="translate(382,189)"/>
<path d="M0 0 C0.66 0 1.32 0 2 0 C4.7039577 7.25152293 5.99322726 14.33668281 7 22 C4.36 22.66 1.72 23.32 -1 24 C-1 34.23 -1 44.46 -1 55 C-1.33 55 -1.66 55 -2 55 C-2 51.04 -2 47.08 -2 43 C-2.66 43 -3.32 43 -4 43 C-4 42.01 -4 41.02 -4 40 C-3.34 40 -2.68 40 -2 40 C-2 38.02 -2 36.04 -2 34 C-2.94875 33.95875 -3.8975 33.9175 -4.875 33.875 C-12.23407188 32.82797758 -19.3855854 27.69111134 -24 22 C-24 21.01 -24 20.02 -24 19 C-16.41045469 19.44644384 -9.98360263 22.11500562 -3 25 C-3.03480469 23.94941406 -3.06960937 22.89882813 -3.10546875 21.81640625 C-3.28640145 13.90060049 -3.174374 7.40687268 0 0 Z " fill="#ECBA61" transform="translate(130,303)"/>
<path d="M0 0 C-0.4981893 4.80073327 -2.78550347 8.07837302 -5.5625 11.875 C-6.01141602 12.49415283 -6.46033203 13.11330566 -6.92285156 13.7512207 C-11.75530886 20.2541465 -17.20740122 26.16632772 -25 29 C-27.375 28.6875 -27.375 28.6875 -29 28 C-28.61914496 20.76375421 -24.75021387 14.6416528 -19.625 9.71875 C-6.73175955 -0.81597085 -6.73175955 -0.81597085 0 0 Z " fill="#EDBA5F" transform="translate(160,134)"/>
<path d="M0 0 C8.97594785 0.47241831 16.38218094 6.70269191 22.30859375 12.98828125 C26.17189585 17.58320177 28.40659831 21.91763266 29 28 C26.21178428 28.804293 24.59539169 29.24011234 21.859375 28.13671875 C13.06316452 22.09339636 4.79133755 13.65783333 0 4 C0 2.68 0 1.36 0 0 Z " fill="#EDBA5E" transform="translate(324,134)"/>
<path d="M0 0 C2.5 2.125 2.5 2.125 4 5 C4 8.75444717 3.86966038 10.99654571 1.375 13.875 C-1 15 -1 15 -4.25 15.4375 C-8.22527458 16.03379119 -10.82945104 17.24376373 -14.30078125 19.16015625 C-16 20 -16 20 -18 20 C-18.83986084 18.06532058 -19.67168027 16.12714871 -20.5 14.1875 C-20.9640625 13.10855469 -21.428125 12.02960938 -21.90625 10.91796875 C-23 8 -23 8 -23 5 C-22.34 5 -21.68 5 -21 5 C-20.32880451 6.4562545 -19.66318193 7.91507867 -19 9.375 C-18.443125 10.59316406 -18.443125 10.59316406 -17.875 11.8359375 C-17 14 -17 14 -17 16 C-14.36 15.34 -11.72 14.68 -9 14 C-9.66 9.38 -10.32 4.76 -11 0 C-6.67942096 -1.08014476 -4.29410571 -1.07352643 0 0 Z " fill="#2D2D2D" transform="translate(233,168)"/>
<path d="M0 0 C6.75015037 0.39706767 17.073846 2.073846 22 7 C22.14115161 9.67058851 22.04247107 12.32432238 22 15 C14.13232143 14.65792702 7.5700605 10.63544007 1.875 5.3125 C0 3 0 3 0 0 Z " fill="#EDBB60" transform="translate(106,322)"/>
<path d="M0 0 C2.5881216 2.25417042 2.94242643 3.60520979 3.4375 7 C3 10 3 10 1.4375 12.3125 C-1.67595861 14.46797134 -4.26646636 14.7128051 -8 15 C-8.53293835 13.25364835 -9.05090663 11.50272348 -9.5625 9.75 C-9.85253906 8.77546875 -10.14257812 7.8009375 -10.44140625 6.796875 C-10.99564971 4.02178189 -11.17015903 2.56376552 -10 0 C-6.20519658 -1.26493447 -3.87641726 -0.89988258 0 0 Z " fill="#C79A4B" transform="translate(179,329)"/>
<path d="M0 0 C0.66 0 1.32 0 2 0 C4.9349159 6.91801604 5.8350908 13.50587348 5 21 C3.98046875 23.35546875 3.98046875 23.35546875 3 25 C0.36 24.01 -2.28 23.02 -5 22 C-4.00804829 4.00804829 -4.00804829 4.00804829 0 0 Z " fill="#EAB960" transform="translate(352,303)"/>
<path d="M0 0 C-2.27110539 5.8213391 -7.85797239 8.86646908 -13 12 C-15.75021772 13.05546577 -18.07157018 13.55797286 -21 14 C-21 11.03 -21 8.06 -21 5 C-19.10667466 4.18167278 -17.21022267 3.37057732 -15.3125 2.5625 C-14.25675781 2.11003906 -13.20101563 1.65757812 -12.11328125 1.19140625 C-7.76631963 -0.47211106 -4.49418946 -1.49806315 0 0 Z " fill="#ECB95F" transform="translate(378,323)"/>
<path d="M0 0 C1.89839917 1.55956509 3.38342275 3.13083255 5 5 C3.02 5.99 3.02 5.99 1 7 C1 6.34 1 5.68 1 5 C-7.83316106 1.25259834 -15.11829501 -0.44915518 -24.203125 3.1484375 C-26.26728289 4.07351744 -26.26728289 4.07351744 -29 6 C-29.99 6 -30.98 6 -32 6 C-31.875 4.25 -31.875 4.25 -31 2 C-22.27898498 -4.93717104 -9.75273145 -4.961916 0 0 Z " fill="#DFAC53" transform="translate(256,261)"/>
<path d="M0 0 C0 0.66 0 1.32 0 2 C4.455 1.505 4.455 1.505 9 1 C6.20793606 2.86137596 4.45490135 3.56029844 1.28125 4.40234375 C0.34796875 4.65306641 -0.5853125 4.90378906 -1.546875 5.16210938 C-2.52140625 5.41798828 -3.4959375 5.67386719 -4.5 5.9375 C-5.44359375 6.18951172 -6.3871875 6.44152344 -7.359375 6.70117188 C-9.26509855 7.21014585 -11.1713503 7.71714619 -13.078125 8.22216797 C-17.72482223 9.45916474 -22.36245261 10.72919891 -27 12 C-26.67 10.35 -26.34 8.7 -26 7 C-22.04293896 5.82898756 -18.08415032 4.66392728 -14.125 3.5 C-12.99707031 3.16613281 -11.86914062 2.83226562 -10.70703125 2.48828125 C-9.63066406 2.17246094 -8.55429688 1.85664063 -7.4453125 1.53125 C-5.95281982 1.09135742 -5.95281982 1.09135742 -4.43017578 0.64257812 C-2 0 -2 0 0 0 Z " fill="#433722" transform="translate(119,360)"/>
<path d="M0 0 C7.75 0.75 7.75 0.75 10 3 C10.125 5.625 10.125 5.625 10 8 C8.02 8.99 8.02 8.99 6 10 C6.495 10.78375 6.99 11.5675 7.5 12.375 C9 15 9 15 9 17 C5.51866169 15.60746468 4.52113967 14.36823784 3 11 C2.34 10.67 1.68 10.34 1 10 C1 11.65 1 13.3 1 15 C0.34 15 -0.32 15 -1 15 C-1.09038099 9.84828377 -0.84681133 5.08086796 0 0 Z " fill="#BF9448" transform="translate(275,321)"/>
<path d="M0 0 C2.1875 -0.3125 2.1875 -0.3125 5 0 C8.30729372 2.49884415 9.80598648 3.94370415 10.5625 8.0625 C9.85763576 11.74345769 9.0766616 12.87000351 6 15 C2.5625 16.0625 2.5625 16.0625 -1 16 C-3.9375 14 -3.9375 14 -6 11 C-6.3125 7.1875 -6.3125 7.1875 -6 4 C-4.68 3.34 -3.36 2.68 -2 2 C-2.33 5.3 -2.66 8.6 -3 12 C1.0100934 12.17864631 1.0100934 12.17864631 5 12 C5.66 11.34 6.32 10.68 7 10 C6.83492354 7.42459787 6.83492354 7.42459787 6 5 C5.34 4.67 4.68 4.34 4 4 C4 5.32 4 6.64 4 8 C3.34 8 2.68 8 2 8 C1.34 5.36 0.68 2.72 0 0 Z " fill="#1C1C1C" transform="translate(173,258)"/>
<path d="M0 0 C1.92167077 0.9557336 3.78945259 2.01833776 5.64453125 3.09765625 C5.64453125 4.41765625 5.64453125 5.73765625 5.64453125 7.09765625 C4.88140625 6.78828125 4.11828125 6.47890625 3.33203125 6.16015625 C-1.31906854 4.32134936 -5.35939859 3.52045875 -10.35546875 4.09765625 C-12.37783927 5.05160461 -14.38373835 6.04300976 -16.35546875 7.09765625 C-17.34546875 6.76765625 -18.33546875 6.43765625 -19.35546875 6.09765625 C-18.34313675 3.16189346 -17.39188933 2.12252884 -14.79296875 0.34765625 C-9.70217849 -1.50354021 -5.137679 -1.96816559 0 0 Z " fill="#DAA951" transform="translate(248.35546875,265.90234375)"/>
<path d="M0 0 C2.04219706 1.69179328 2.91793306 2.63727666 3.51171875 5.26171875 C3.59873047 6.46248047 3.59873047 6.46248047 3.6875 7.6875 C3.78611328 8.89986328 3.78611328 8.89986328 3.88671875 10.13671875 C3.92410156 10.75160156 3.96148437 11.36648437 4 12 C4.66 12 5.32 12 6 12 C6.103125 11.071875 6.20625 10.14375 6.3125 9.1875 C7.0070192 5.96745642 7.47740939 4.97420135 10 3 C11 5 11 5 10.00390625 8.0390625 C9.52824219 9.22242188 9.05257813 10.40578125 8.5625 11.625 C7.85287109 13.40777344 7.85287109 13.40777344 7.12890625 15.2265625 C6.75636719 16.14179688 6.38382812 17.05703125 6 18 C5.01 17.67 4.02 17.34 3 17 C2.26953125 14.93359375 2.26953125 14.93359375 1.8125 12.4375 C1.65394531 11.61121094 1.49539063 10.78492188 1.33203125 9.93359375 C1.22246094 9.29550781 1.11289062 8.65742188 1 8 C-0.74627478 10.61941217 -1.38722388 12.03824877 -2 15 C-2.99 15 -3.98 15 -5 15 C-4.43174347 9.45949887 -2.37113483 4.96284034 0 0 Z " fill="#191919" transform="translate(263,169)"/>
<path d="M0 0 C0.99 0.33 1.98 0.66 3 1 C3.94921875 3.06640625 3.94921875 3.06640625 4.6875 5.5625 C4.93886719 6.38878906 5.19023437 7.21507812 5.44921875 8.06640625 C5.63097656 8.70449219 5.81273437 9.34257812 6 10 C6.66 10 7.32 10 8 10 C8.33 7.36 8.66 4.72 9 2 C9.66 2 10.32 2 11 2 C10.85816304 3.75032844 10.71136571 5.50025534 10.5625 7.25 C10.48128906 8.22453125 10.40007812 9.1990625 10.31640625 10.203125 C10.04925416 12.56461753 9.64628032 14.71901065 9 17 C8.01 16.67 7.02 16.34 6 16 C5.05078125 13.93359375 5.05078125 13.93359375 4.3125 11.4375 C4.06113281 10.61121094 3.80976563 9.78492188 3.55078125 8.93359375 C3.36902344 8.29550781 3.18726563 7.65742188 3 7 C2.34 7 1.68 7 1 7 C0.67 9.64 0.34 12.28 0 15 C-0.66 15 -1.32 15 -2 15 C-1.47462276 9.9697924 -0.89405214 4.98114761 0 0 Z " fill="#C5994A" transform="translate(288,323)"/>
<path d="M0 0 C2.4375 1.25 2.4375 1.25 4 3 C4 4.32 4 5.64 4 7 C3.34 7 2.68 7 2 7 C1.34 5.68 0.68 4.36 0 3 C-1.99954746 2.95745644 -4.00041636 2.95919217 -6 3 C-7.41577477 4.18424326 -7.41577477 4.18424326 -7.0625 7.5625 C-7.041875 8.696875 -7.02125 9.83125 -7 11 C-4.03 11.495 -4.03 11.495 -1 12 C-2.32 10.68 -3.64 9.36 -5 8 C-4.34 7.67 -3.68 7.34 -3 7 C-0.96855359 7.93446535 1.03533587 8.93224776 3 10 C2.4375 11.9375 2.4375 11.9375 1 14 C-2.3125 15.0625 -2.3125 15.0625 -6 15 C-9 13 -9 13 -11 10 C-11 6.45638757 -10.65850044 4.13408409 -8.875 1.0625 C-5.85228899 -0.65036957 -3.39414695 -0.35727863 0 0 Z " fill="#CA9D4C" transform="translate(336,337)"/>
<path d="M0 0 C4.9723422 1.49170266 9.41845739 3.60457417 14 6 C14 6.66 14 7.32 14 8 C9.59085217 9.10228696 5.51617599 9.07654536 1 9 C1 9.66 1 10.32 1 11 C1.94875 11.309375 2.8975 11.61875 3.875 11.9375 C7 13 7 13 9 14 C8.67 14.99 8.34 15.98 8 17 C3.71 14.69 -0.58 12.38 -5 10 C-5 9.34 -5 8.68 -5 8 C-1.04 7.34 2.92 6.68 7 6 C3.535 4.02 3.535 4.02 0 2 C0 1.34 0 0.68 0 0 Z " fill="#131313" transform="translate(175,204)"/>
<path d="M0 0 C0.33 0.99 0.66 1.98 1 3 C-0.62339805 4.70884005 -2.29319053 6.37446717 -4 8 C-4.66 8 -5.32 8 -6 8 C-6.66 6.68 -7.32 5.36 -8 4 C-8.99 4 -9.98 4 -11 4 C-11.33 5.65 -11.66 7.3 -12 9 C-7.38 9 -2.76 9 2 9 C2 9.66 2 10.32 2 11 C-3.38490641 11.91657981 -8.54230189 12.11138159 -14 12 C-14.05399736 10.54207116 -14.09279177 9.08357288 -14.125 7.625 C-14.15980469 6.40683594 -14.15980469 6.40683594 -14.1953125 5.1640625 C-14 3 -14 3 -12 1 C-8.875 0.875 -8.875 0.875 -6 1 C-5.67 1.99 -5.34 2.98 -5 4 C-3.35 2.68 -1.7 1.36 0 0 Z " fill="#131313" transform="translate(178,244)"/>
<path d="M0 0 C3.3 0 6.6 0 10 0 C10 0.99 10 1.98 10 3 C7.69 3 5.38 3 3 3 C3 3.99 3 4.98 3 6 C4.98 6 6.96 6 9 6 C9 6.99 9 7.98 9 9 C6.69 9 4.38 9 2 9 C2 10.32 2 11.64 2 13 C4.31 13 6.62 13 9 13 C9 13.66 9 14.32 9 15 C6.03 15 3.06 15 0 15 C0 10.05 0 5.1 0 0 Z " fill="#B08942" transform="translate(249,319)"/>
<path d="M0 0 C0.66 0 1.32 0 2 0 C1.67 2.64 1.34 5.28 1 8 C2.32 8 3.64 8 5 8 C5.33 6.02 5.66 4.04 6 2 C6.66 2 7.32 2 8 2 C7.67 4.64 7.34 7.28 7 10 C8.32 10 9.64 10 11 10 C11.66 8.02 12.32 6.04 13 4 C13.66 4 14.32 4 15 4 C14.34 6.97 13.68 9.94 13 13 C7.33895411 12.50341703 3.12325529 11.45489316 -2 9 C-1.125 1.125 -1.125 1.125 0 0 Z " fill="#222222" transform="translate(168,218)"/>
<path d="M0 0 C0.66 0 1.32 0 2 0 C2.67528223 1.57967807 3.33989694 3.16391903 4 4.75 C4.37125 5.63171875 4.7425 6.5134375 5.125 7.421875 C6 10 6 10 6 14 C2.00499382 12.6302836 -0.80009492 10.74277578 -4 8 C-3.34 10.97 -2.68 13.94 -2 17 C-2.66 17 -3.32 17 -4 17 C-5.65 12.71 -7.3 8.42 -9 4 C-8.01 3.67 -7.02 3.34 -6 3 C-4.17578125 3.99609375 -4.17578125 3.99609375 -2.3125 5.4375 C-1.68988281 5.91058594 -1.06726563 6.38367188 -0.42578125 6.87109375 C0.27998047 7.42990234 0.27998047 7.42990234 1 8 C0.67 5.36 0.34 2.72 0 0 Z " fill="#CEA04E" transform="translate(162,332)"/>
<path d="M0 0 C3.10044264 2.80794805 3.73595485 4.77527764 4 9 C3.01 10.485 3.01 10.485 2 12 C-1.625 12.1875 -1.625 12.1875 -5 12 C-5.66 13.32 -6.32 14.64 -7 16 C-7.66 16 -8.32 16 -9 16 C-8.44271087 12.65626525 -7.64826111 9.96687001 -6 7 C-5.01 7.33 -4.02 7.66 -3 8 C-3 8.66 -3 9.32 -3 10 C-1.68 9.67 -0.36 9.34 1 9 C0.67 7.35 0.34 5.7 0 4 C-0.60328125 4.27714844 -1.2065625 4.55429688 -1.828125 4.83984375 C-2.62734375 5.20207031 -3.4265625 5.56429687 -4.25 5.9375 C-5.43335938 6.47697266 -5.43335938 6.47697266 -6.640625 7.02734375 C-8.75823698 7.90033279 -10.76669362 8.51338508 -13 9 C-12 6 -12 6 -9.27734375 4.39453125 C-8.17519531 3.87246094 -7.07304687 3.35039062 -5.9375 2.8125 C-4.83277344 2.28269531 -3.72804688 1.75289062 -2.58984375 1.20703125 C-1.73519531 0.80871094 -0.88054687 0.41039062 0 0 Z " fill="#141414" transform="translate(309,205)"/>
<path d="M0 0 C3.80984844 2.77079887 4.06840752 6.62868145 5 11 C5.99 8.36 6.98 5.72 8 3 C8.66 3 9.32 3 10 3 C9.00956295 7.83628305 8.04301154 12.47618873 6 17 C5.34 17 4.68 17 4 17 C3.01 14.03 2.02 11.06 1 8 C-1.10232344 10.8684413 -1.10232344 10.8684413 -2 14 C-2.99 13.67 -3.98 13.34 -5 13 C-4.35780498 11.01964979 -3.71114356 9.04074744 -3.0625 7.0625 C-2.70285156 5.96035156 -2.34320313 4.85820312 -1.97265625 3.72265625 C-1 1 -1 1 0 0 Z " fill="#D0A14E" transform="translate(315,330)"/>
<path d="M0 0 C0.66 0 1.32 0 2 0 C3.32 5.28 4.64 10.56 6 16 C5.01 15.67 4.02 15.34 3 15 C2.67 14.01 2.34 13.02 2 12 C-0.97 11.505 -0.97 11.505 -4 11 C-4.33 12.32 -4.66 13.64 -5 15 C-5.66 15 -6.32 15 -7 15 C-6.41512359 10.99251347 -5.15605425 8.14263232 -3.0625 4.6875 C-2.53785156 3.80449219 -2.01320313 2.92148437 -1.47265625 2.01171875 C-0.98667969 1.34785156 -0.50070312 0.68398438 0 0 Z " fill="#D0A14E" transform="translate(266,320)"/>
<path d="M0 0 C3 0.25 3 0.25 5 2.25 C5 3.24 5 4.23 5 5.25 C5.66 5.25 6.32 5.25 7 5.25 C7.33 4.59 7.66 3.93 8 3.25 C8 4.24 8 5.23 8 6.25 C7.34 6.25 6.68 6.25 6 6.25 C5.67 6.91 5.34 7.57 5 8.25 C3.02 7.59 1.04 6.93 -1 6.25 C0.32 7.57 1.64 8.89 3 10.25 C0.6875 10.875 0.6875 10.875 -2 11.25 C-2.99 10.59 -3.98 9.93 -5 9.25 C-5.3125 5.75 -5.3125 5.75 -5 2.25 C-3 0.25 -3 0.25 0 0 Z " fill="#161108" transform="translate(333,338.75)"/>
<path d="M0 0 C0.99 0 1.98 0 3 0 C2.67 2.31 2.34 4.62 2 7 C3.32 7 4.64 7 6 7 C6.33 5.02 6.66 3.04 7 1 C7.66 1 8.32 1 9 1 C9 3.31 9 5.62 9 8 C10.32 8 11.64 8 13 8 C13.33 5.69 13.66 3.38 14 1 C14.66 1 15.32 1 16 1 C16.125 7.75 16.125 7.75 15 10 C9.87416389 10.10251672 5.05002222 10.03590199 0 9 C0 6.03 0 3.06 0 0 Z " fill="#1C1C1C" transform="translate(164,232)"/>
<path d="M0 0 C2.625 0.3125 2.625 0.3125 4.5 2 C5.625 4.3125 5.625 4.3125 5.4375 7 C4.625 9.3125 4.625 9.3125 2.625 10.3125 C2.295 8.0025 1.965 5.6925 1.625 3.3125 C0.965 3.3125 0.305 3.3125 -0.375 3.3125 C-0.49875 4.59125 -0.6225 5.87 -0.75 7.1875 C-1.125 11.0625 -1.125 11.0625 -3.375 13.3125 C-5.875 13.125 -5.875 13.125 -8.375 12.3125 C-10.5137261 9.10441085 -10.85230962 8.03551503 -10.375 4.3125 C-9.385 3.6525 -8.395 2.9925 -7.375 2.3125 C-7.375 4.97916667 -7.375 7.64583333 -7.375 10.3125 C-6.055 10.3125 -4.735 10.3125 -3.375 10.3125 C-3.38660156 9.67441406 -3.39820313 9.03632813 -3.41015625 8.37890625 C-3.41917969 7.55261719 -3.42820312 6.72632813 -3.4375 5.875 C-3.44910156 5.05128906 -3.46070313 4.22757813 -3.47265625 3.37890625 C-3.33148312 0.39168287 -2.96681414 0.39037028 0 0 Z " fill="#161616" transform="translate(312.375,218.6875)"/>
<path d="M0 0 C3.31467895 1.53406629 5.03944771 2.86311633 7 6 C7 6.66 7 7.32 7 8 C3.125 6.25 3.125 6.25 2 4 C1.01 4.33 0.02 4.66 -1 5 C-0.01 6.98 0.98 8.96 2 11 C1.01 11 0.02 11 -1 11 C-1.66 9.68 -2.32 8.36 -3 7 C-3.99 7.66 -4.98 8.32 -6 9 C-5.34 11.31 -4.68 13.62 -4 16 C-7.42054006 14.85981998 -8.2426201 14.07541482 -10 11 C-9.78783848 8.04792399 -9.12406264 7.11538529 -6.93359375 5.078125 C-6.10988281 4.47484375 -5.28617187 3.8715625 -4.4375 3.25 C-3.61121094 2.63640625 -2.78492188 2.0228125 -1.93359375 1.390625 C-1.29550781 0.93171875 -0.65742188 0.4728125 0 0 Z " fill="#171717" transform="translate(300,194)"/>
<path d="M0 0 C0.33 0.99 0.66 1.98 1 3 C-0.65 3.66 -2.3 4.32 -4 5 C-3.67 5.99 -3.34 6.98 -3 8 C-0.61435923 7.42415568 1.66682784 6.77772405 4 6 C4 6.99 4 7.98 4 9 C2 10.6875 2 10.6875 0 12 C0.33 12.66 0.66 13.32 1 14 C3.31 13.34 5.62 12.68 8 12 C7.375 13.875 7.375 13.875 6 16 C4.02094497 16.72648856 2.02061203 17.39869186 0 18 C-1.17491582 16.23462904 -2.33968684 14.46250287 -3.5 12.6875 C-4.1496875 11.70136719 -4.799375 10.71523437 -5.46875 9.69921875 C-7 7 -7 7 -7 4 C-4.69 2.68 -2.38 1.36 0 0 Z " fill="#151515" transform="translate(205,175)"/>
<path d="M0 0 C0 0.66 0 1.32 0 2 C-1.98 2.33 -3.96 2.66 -6 3 C-6 4.32 -6 5.64 -6 7 C-2.535 6.505 -2.535 6.505 1 6 C0.67 6.99 0.34 7.98 0 9 C-1.65 9 -3.3 9 -5 9 C-5 10.32 -5 11.64 -5 13 C-2.69 13 -0.38 13 2 13 C2 13.66 2 14.32 2 15 C0 16 0 16 -7 16 C-7.66 11.05 -8.32 6.1 -9 1 C-4 0 -4 0 0 0 Z " fill="#CB9D4C" transform="translate(203,322)"/>
<path d="M0 0 C1.9375 0.6875 1.9375 0.6875 4 2 C4.9375 4.4375 4.9375 4.4375 5 7 C3.9375 8.8125 3.9375 8.8125 2 10 C-1.21494057 10.40186757 -3.1381629 10.57455806 -5.875 8.75 C-7 7 -7 7 -7 3 C-5.35 2.34 -3.7 1.68 -2 1 C-1.67 2.32 -1.34 3.64 -1 5 C-0.34 5 0.32 5 1 5 C0.67 3.35 0.34 1.7 0 0 Z " fill="#D0D0D0" transform="translate(176,261)"/>
<path d="M0 0 C3.375 -0.125 3.375 -0.125 7 0 C9 2 9 2 9.375 4.9375 C9 8 9 8 7.1875 9.875 C5 11 5 11 2 11 C0.57741188 7.17679443 -0.24042276 4.08718695 0 0 Z " fill="#D9D9D9" transform="translate(225,170)"/>
<path d="M0 0 C5.94 1.485 5.94 1.485 12 3 C12 3.99 12 4.98 12 6 C12.59167969 6.12117188 13.18335938 6.24234375 13.79296875 6.3671875 C18.03803585 7.26744643 22.02439661 8.20456621 26 10 C22.11926025 11.29357992 20.28181992 10.45990522 16.36328125 9.34765625 C15.72384079 9.16867294 15.08440033 8.98968964 14.42558289 8.80528259 C12.38555087 8.23229241 10.34909554 7.64757407 8.3125 7.0625 C6.92925587 6.6717485 5.5457945 6.28176515 4.16210938 5.89257812 C0.77217431 4.937283 -2.61465212 3.97144215 -6 3 C-6 2.67 -6 2.34 -6 2 C-4.02 2 -2.04 2 0 2 C0 1.34 0 0.68 0 0 Z " fill="#4A3B20" transform="translate(365,360)"/>
<path d="M0 0 C0.66 0 1.32 0 2 0 C2 4.29 2 8.58 2 13 C3.65 13 5.3 13 7 13 C7.66 9.37 8.32 5.74 9 2 C9.66 2 10.32 2 11 2 C11.19243024 6.81075606 10.86687649 10.54023951 9 15 C8.34 15.66 7.68 16.32 7 17 C1.54545455 16.54545455 1.54545455 16.54545455 -1 14 C-1.23046875 11.7578125 -1.23046875 11.7578125 -1.1875 9.125 C-1.18105469 8.26132813 -1.17460937 7.39765625 -1.16796875 6.5078125 C-1.01393667 4.20807774 -0.64161776 2.20716511 0 0 Z " fill="#181818" transform="translate(246,166)"/>
<path d="M0 0 C0.33 0.99 0.66 1.98 1 3 C-0.65 3.33 -2.3 3.66 -4 4 C-4 5.32 -4 6.64 -4 8 C-1.69 7.34 0.62 6.68 3 6 C3 6.99 3 7.98 3 9 C1.35 9.33 -0.3 9.66 -2 10 C-1.67 10.99 -1.34 11.98 -1 13 C2.465 12.505 2.465 12.505 6 12 C5 15 5 15 3.1875 16.25 C0.5432636 17.15659534 -0.4395418 17.08806995 -3 16 C-4.265625 13.8203125 -4.265625 13.8203125 -5.25 11.125 C-5.58515625 10.24070312 -5.9203125 9.35640625 -6.265625 8.4453125 C-7 6 -7 6 -7 3 C-4.69 2.01 -2.38 1.02 0 0 Z " fill="#D3A450" transform="translate(149,336)"/>
<path d="M0 0 C0.99 0.103125 1.98 0.20625 3 0.3125 C3.66 1.3025 4.32 2.2925 5 3.3125 C2.69 3.3125 0.38 3.3125 -2 3.3125 C-2 3.9725 -2 4.6325 -2 5.3125 C0.31 5.9725 2.62 6.6325 5 7.3125 C5.33 8.9625 5.66 10.6125 6 12.3125 C4.3125 13.875 4.3125 13.875 2 15.3125 C-0.75 15 -0.75 15 -3 14.3125 C-3.33 13.3225 -3.66 12.3325 -4 11.3125 C-1.69 11.3125 0.62 11.3125 3 11.3125 C3 10.6525 3 9.9925 3 9.3125 C0.69 8.6525 -1.62 7.9925 -4 7.3125 C-4.625 4.9375 -4.625 4.9375 -5 2.3125 C-3 0.3125 -3 0.3125 0 0 Z " fill="#D9A852" transform="translate(224,319.6875)"/>
<path d="M0 0 C3.375 -0.1875 3.375 -0.1875 7 0 C9 3 9 3 8.75 5.5625 C8 8 8 8 6 10 C4.68 10 3.36 10 2 10 C0.39644899 6.49223216 -0.22036864 3.85645121 0 0 Z " fill="#090703" transform="translate(171,331)"/>
<path d="M0 0 C0.99 0.103125 1.98 0.20625 3 0.3125 C3.66 1.3025 4.32 2.2925 5 3.3125 C2.69 3.3125 0.38 3.3125 -2 3.3125 C-2.33 4.3025 -2.66 5.2925 -3 6.3125 C-1.88625 6.27125 -0.7725 6.23 0.375 6.1875 C4 6.3125 4 6.3125 6 8.3125 C6.3125 10.8125 6.3125 10.8125 6 13.3125 C2.77208445 15.4644437 1.71599191 15.51336443 -2 15.3125 C-2.66 13.9925 -3.32 12.6725 -4 11.3125 C-1.69 11.6425 0.62 11.9725 3 12.3125 C3 11.3225 3 10.3325 3 9.3125 C0.69 8.6525 -1.62 7.9925 -4 7.3125 C-4.625 4.9375 -4.625 4.9375 -5 2.3125 C-3 0.3125 -3 0.3125 0 0 Z " fill="#D5A550" transform="translate(211,320.6875)"/>
<path d="M0 0 C1.61272291 4.74204616 -0.13370846 7.5209003 -2 12 C1.63 10.35 5.26 8.7 9 7 C9 7.99 9 8.98 9 10 C7.06629769 11.00732399 5.12789694 12.00563288 3.1875 13 C1.56908203 13.8353125 1.56908203 13.8353125 -0.08203125 14.6875 C-3 16 -3 16 -6 16 C-4.43551329 10.3856009 -2.83604813 5.13189662 0 0 Z " fill="#191919" transform="translate(289,182)"/>
<path d="M0 0 C1.65 0.33 3.3 0.66 5 1 C6.03159626 4.09478879 5.97482862 5.52631393 5.5625 8.6875 C5.46066406 9.49574219 5.35882813 10.30398437 5.25390625 11.13671875 C5.17011719 11.75160156 5.08632813 12.36648437 5 13 C3.68 13 2.36 13 1 13 C0 8.25 0 8.25 0 6 C-0.99 6.495 -0.99 6.495 -2 7 C-2.66 6.34 -3.32 5.68 -4 5 C-3.34 5 -2.68 5 -2 5 C-1.34 3.35 -0.68 1.7 0 0 Z " fill="#CACACA" transform="translate(304,216)"/>
<path d="M0 0 C0.99 0 1.98 0 3 0 C2.67 0.5775 2.34 1.155 2 1.75 C0.72924102 4.19883862 0.72924102 4.19883862 1 8 C1.66 8.33 2.32 8.66 3 9 C3.66 7.68 4.32 6.36 5 5 C5.66 5 6.32 5 7 5 C6.34 6.98 5.68 8.96 5 11 C5.66 11.45375 6.32 11.9075 7 12.375 C7.66 12.91125 8.32 13.4475 9 14 C9 14.66 9 15.32 9 16 C5.29496359 15.39665691 3.14031852 13.77525763 0.25 11.4375 C-0.54921875 10.79683594 -1.3484375 10.15617188 -2.171875 9.49609375 C-2.77515625 9.00238281 -3.3784375 8.50867188 -4 8 C-3.25774273 4.66684471 -2.35893889 2.54039572 0 0 Z " fill="#181818" transform="translate(183,192)"/>
<path d="M0 0 C0.99 0 1.98 0 3 0 C2.67 3.96 2.34 7.92 2 12 C1.34 12 0.68 12 0 12 C0 10.35 0 8.7 0 7 C-4.29 7 -8.58 7 -13 7 C-13.33 6.01 -13.66 5.02 -14 4 C-4.58997722 3.81548975 -4.58997722 3.81548975 0 5 C0 3.35 0 1.7 0 0 Z " fill="#2C2C2C" transform="translate(318,244)"/>
<path d="M0 0 C0.66 0 1.32 0 2 0 C2 2.64 2 5.28 2 8 C1.34 8 0.68 8 0 8 C0 7.34 0 6.68 0 6 C-3.63 6 -7.26 6 -11 6 C-11 6.99 -11 7.98 -11 9 C-11.66 9 -12.32 9 -13 9 C-13.33 6.36 -13.66 3.72 -14 1 C-13.01 1 -12.02 1 -11 1 C-11 1.99 -11 2.98 -11 4 C-5.555 3.505 -5.555 3.505 0 3 C0 2.01 0 1.02 0 0 Z " fill="#1F1F1F" transform="translate(318,233)"/>
<path d="M0 0 C4.05886955 0.23416555 6.35661366 0.45312161 9.5 3.125 C11 6 11 6 11.0625 9.625 C10 13 10 13 7.4375 14.9375 C6.633125 15.288125 5.82875 15.63875 5 16 C4.67 15.01 4.34 14.02 4 13 C4.99 12.34 5.98 11.68 7 11 C7.33340471 7.95804573 7.33340471 7.95804573 7 5 C5.50256881 3.50256881 4.01175761 3.66797307 1.9375 3.4375 C0.638125 3.293125 -0.66125 3.14875 -2 3 C-1.34 2.01 -0.68 1.02 0 0 Z " fill="#1F1F1F" transform="translate(226,167)"/>
<path d="M0 0 C0.0825 0.721875 0.165 1.44375 0.25 2.1875 C1.17026382 5.63848934 2.48298277 7.48298277 5 10 C6.32 10 7.64 10 9 10 C7.95125002 12.62187494 7.35068687 13.79371361 4.875 15.25 C4.25625 15.4975 3.6375 15.745 3 16 C3 15.01 3 14.02 3 13 C1.69193639 10.89243176 1.69193639 10.89243176 0 8.8125 C-0.8353125 7.73935547 -0.8353125 7.73935547 -1.6875 6.64453125 C-2.120625 6.10183594 -2.55375 5.55914062 -3 5 C-3.99 5.33 -4.98 5.66 -6 6 C-6 3 -6 3 -4.6875 1.3125 C-3 0 -3 0 0 0 Z " fill="#171717" transform="translate(194,184)"/>
<path d="M0 0 C0.76183594 -0.00515625 1.52367187 -0.0103125 2.30859375 -0.015625 C4.77693018 0.2752708 6.420186 1.02024344 8.5625 2.25 C7.9025 3.57 7.2425 4.89 6.5625 6.25 C5.9025 5.92 5.2425 5.59 4.5625 5.25 C2.68870395 5.17966231 0.81248898 5.1656978 -1.0625 5.1875 C-2.56683594 5.20103516 -2.56683594 5.20103516 -4.1015625 5.21484375 C-5.25785156 5.23224609 -5.25785156 5.23224609 -6.4375 5.25 C-6.7675 4.26 -7.0975 3.27 -7.4375 2.25 C-4.32763793 0.17675862 -3.54641613 -0.02392186 0 0 Z " fill="#D3A34E" transform="translate(241.4375,272.75)"/>
<path d="M0 0 C3.68754757 0.49831724 5.60490662 1.10067643 8 4 C7.4225 4.020625 6.845 4.04125 6.25 4.0625 C3.12601503 5.36416041 2.23125996 7.2842224 0.68359375 10.2109375 C-0.17833057 12.06394528 -0.17833057 12.06394528 0.25 14.4375 C0.4975 14.953125 0.745 15.46875 1 16 C0.34 16.33 -0.32 16.66 -1 17 C-2.98 15.68 -4.96 14.36 -7 13 C-6.34 12.34 -5.68 11.68 -5 11 C-4.34 11 -3.68 11 -3 11 C0.10903596 6.60344358 0.10903596 6.60344358 0.75 1.5625 C0.5025 1.046875 0.255 0.53125 0 0 Z " fill="#161616" transform="translate(278,176)"/>
<path d="M0 0 C0 0.66 0 1.32 0 2 C-2.90600261 3.25664978 -4.79604584 4 -8 4 C-6.7625 5.3921875 -6.7625 5.3921875 -5.5 6.8125 C-3 9.625 -3 9.625 -3 13 C-3.66 13 -4.32 13 -5 13 C-6.296875 11.5390625 -6.296875 11.5390625 -7.75 9.625 C-10.49519049 6.2780313 -12.67800744 4.92614126 -17 4 C-17 3.34 -17 2.68 -17 2 C-15.80375 2.04125 -14.6075 2.0825 -13.375 2.125 C-8.62456175 2.14181571 -4.64973034 0 0 0 Z " fill="#111111" transform="translate(320,258)"/>
<path d="M0 0 C2.64 0.33 5.28 0.66 8 1 C8 1.66 8 2.32 8 3 C7.01 3.33 6.02 3.66 5 4 C4.83211627 5.62487471 4.66573213 7.24990442 4.5 8.875 C4.4071875 9.77992188 4.314375 10.68484375 4.21875 11.6171875 C3.96952705 13.93313211 3.96952705 13.93313211 4 16 C1.69 15.67 -0.62 15.34 -3 15 C-3 14.34 -3 13.68 -3 13 C-2.01 12.67 -1.02 12.34 0 12 C1.02700444 9.67108904 1.02700444 9.67108904 1.6875 6.9375 C1.93886719 6.01839844 2.19023437 5.09929687 2.44921875 4.15234375 C2.63097656 3.44207031 2.81273437 2.73179687 3 2 C2.01 2 1.02 2 0 2 C0 1.34 0 0.68 0 0 Z " fill="#C5994A" transform="translate(303,327)"/>
<path d="M0 0 C0.66 0 1.32 0 2 0 C3.59138085 4.17737474 4.21278058 7.53160785 4 12 C4.66 11.67 5.32 11.34 6 11 C7.99960012 10.960008 10.00047242 10.95653201 12 11 C12 11.66 12 12.32 12 13 C7.545 13.495 7.545 13.495 3 14 C0.79600832 9.44508386 0.41153737 4.97093824 0 0 Z " fill="#C89B4C" transform="translate(183,326)"/>
<path d="M0 0 C0.66 0.66 1.32 1.32 2 2 C0.35 6.29 -1.3 10.58 -3 15 C-3.99 14.67 -4.98 14.34 -6 14 C-6.33 11.03 -6.66 8.06 -7 5 C-6.01 5.495 -6.01 5.495 -5 6 C-5 6.99 -5 7.98 -5 9 C-4.34 9 -3.68 9 -3 9 C-2.87625 8.071875 -2.7525 7.14375 -2.625 6.1875 C-2 3 -2 3 0 0 Z " fill="#101010" transform="translate(272,172)"/>
<path d="M0 0 C1.875 0.6875 1.875 0.6875 2.875 1.6875 C2.91563832 3.35367115 2.917721 5.02138095 2.875 6.6875 C0.895 7.6775 0.895 7.6775 -1.125 8.6875 C-0.63 9.47125 -0.135 10.255 0.375 11.0625 C1.875 13.6875 1.875 13.6875 1.875 15.6875 C0 15.0625 0 15.0625 -2.125 13.6875 C-3.375 10.5625 -3.375 10.5625 -4.125 7.6875 C-2.805 7.0275 -1.485 6.3675 -0.125 5.6875 C-0.125 4.6975 -0.125 3.7075 -0.125 2.6875 C-1.775 2.3575 -3.425 2.0275 -5.125 1.6875 C-2.125 -0.3125 -2.125 -0.3125 0 0 Z " fill="#D0A24F" transform="translate(282.125,322.3125)"/>
<path d="M0 0 C-3.91839647 4.5503959 -8.2112707 7.24859663 -14 9 C-14.66 8.67 -15.32 8.34 -16 8 C-12.13054237 2.5585752 -7.06089248 -2.35363083 0 0 Z " fill="#2F281D" transform="translate(108,412)"/>
<path d="M0 0 C0 0.66 0 1.32 0 2 C-0.66 2 -1.32 2 -2 2 C-2 2.66 -2 3.32 -2 4 C-1.05125 4.309375 -0.1025 4.61875 0.875 4.9375 C4 6 4 6 6 7 C5.67 7.99 5.34 8.98 5 10 C0.71 7.69 -3.58 5.38 -8 3 C-8 2.34 -8 1.68 -8 1 C-5.10765685 0.17361624 -3.11257569 0 0 0 Z " fill="#1B1B1B" transform="translate(178,211)"/>
<path d="M0 0 C0.66 0 1.32 0 2 0 C1.67 3.3 1.34 6.6 1 10 C3.31 10.33 5.62 10.66 8 11 C8 11.99 8 12.98 8 14 C1.61802233 13.51834131 1.61802233 13.51834131 -0.9375 11.375 C-2.39952039 8.10695442 -2.32742834 5.53622611 -2 2 C-1.34 1.34 -0.68 0.68 0 0 Z " fill="#2C2C2C" transform="translate(169,260)"/>
<path d="M0 0 C0.66 0 1.32 0 2 0 C2 4.29 2 8.58 2 13 C4.31 13 6.62 13 9 13 C9 13.66 9 14.32 9 15 C6.03 15 3.06 15 0 15 C0 10.05 0 5.1 0 0 Z " fill="#EBB659" transform="translate(238,319)"/>
<path d="M0 0 C0.99 0.33 1.98 0.66 3 1 C3.66 4.96 4.32 8.92 5 13 C6.32 13 7.64 13 9 13 C9 13.66 9 14.32 9 15 C7.02 15.33 5.04 15.66 3 16 C2.49595192 13.89679937 1.99689492 11.79240209 1.5 9.6875 C1.08234375 7.92986328 1.08234375 7.92986328 0.65625 6.13671875 C0 3 0 3 0 0 Z " fill="#151515" transform="translate(222,168)"/>
<path d="M0 0 C2.0625 0.4375 2.0625 0.4375 4 1 C4.33 2.32 4.66 3.64 5 5 C7.64 5 10.28 5 13 5 C13 5.33 13 5.66 13 6 C8.38 6 3.76 6 -1 6 C-1 1 -1 1 0 0 Z " fill="#C1C1C1" transform="translate(167,247)"/>
<path d="M0 0 C3.26954202 0.56371414 4.82575883 1.49962266 7 4 C6.01 4.495 6.01 4.495 5 5 C5.66 7.97 6.32 10.94 7 14 C6.34 14 5.68 14 5 14 C4.16465351 11.85494956 3.33177374 9.70893835 2.5 7.5625 C2.0359375 6.36753906 1.571875 5.17257812 1.09375 3.94140625 C0 1 0 1 0 0 Z " fill="#D7A751" transform="translate(153,335)"/>
<path d="M0 0 C1.31625194 2.63250388 0.74813658 3.80179056 0.0625 6.625 C-0.13214844 7.44226563 -0.32679688 8.25953125 -0.52734375 9.1015625 C-0.76130859 10.04128906 -0.76130859 10.04128906 -1 11 C-1.66 11 -2.32 11 -3 11 C-6 6.61538462 -6 6.61538462 -6 4 C-4.03852126 2.61061923 -2.03833424 1.2739589 0 0 Z " fill="#181209" transform="translate(287,327)"/>
<path d="M0 0 C1.5625 1.25 1.5625 1.25 3 3 C2.6875 5.1875 2.6875 5.1875 2 7 C-2 7 -2 7 -3.75 5.5 C-4.1625 5.005 -4.575 4.51 -5 4 C-5.33 4.66 -5.66 5.32 -6 6 C-5.8125 4.125 -5.8125 4.125 -5 2 C-2.4375 0.75 -2.4375 0.75 0 0 Z " fill="#C2C2C2" transform="translate(308,208)"/>
<path d="M0 0 C0.66 0 1.32 0 2 0 C1.00956295 4.83628305 0.04301154 9.47618873 -2 14 C-2.66 14 -3.32 14 -4 14 C-4.33 12.02 -4.66 10.04 -5 8 C-4.34 8 -3.68 8 -3 8 C-2.01 5.36 -1.02 2.72 0 0 Z " fill="#D1A24F" transform="translate(323,333)"/>
<path d="M0 0 C0.33 0 0.66 0 1 0 C1 9.9 1 19.8 1 30 C0.67 30 0.34 30 0 30 C0 26.04 0 22.08 0 18 C-0.66 18 -1.32 18 -2 18 C-2 17.01 -2 16.02 -2 15 C-1.34 15 -0.68 15 0 15 C0 10.05 0 5.1 0 0 Z " fill="#9C8A6A" transform="translate(128,328)"/>
<path d="M0 0 C0.99 0.33 1.98 0.66 3 1 C3 2.32 3 3.64 3 5 C2.34 5 1.68 5 1 5 C1.020625 6.093125 1.04125 7.18625 1.0625 8.3125 C1 12 1 12 0 15 C-0.66 15 -1.32 15 -2 15 C-1.47462276 9.9697924 -0.89405214 4.98114761 0 0 Z " fill="#D1A24F" transform="translate(288,323)"/>
<path d="M0 0 C0.33 0.66 0.66 1.32 1 2 C1.33 1.34 1.66 0.68 2 0 C6.62 0 11.24 0 16 0 C16 0.66 16 1.32 16 2 C10.61509359 2.91657981 5.45769811 3.11138159 0 3 C0 2.01 0 1.02 0 0 Z " fill="#2E2E2E" transform="translate(164,253)"/>
<path d="M0 0 C0.66 0 1.32 0 2 0 C1.67 2.64 1.34 5.28 1 8 C2.32 8.33 3.64 8.66 5 9 C4.67 9.66 4.34 10.32 4 11 C2.02 10.34 0.04 9.68 -2 9 C-1.125 1.125 -1.125 1.125 0 0 Z " fill="#252525" transform="translate(168,218)"/>
<path d="M0 0 C2.97 0.495 2.97 0.495 6 1 C5.01 1.495 5.01 1.495 4 2 C4 2.66 4 3.32 4 4 C6.97 4.495 6.97 4.495 10 5 C6.23331402 6.3805087 3.55210827 5.59568159 -0.25 4.5625 C-1.32765625 4.27503906 -2.4053125 3.98757813 -3.515625 3.69140625 C-4.74539063 3.34916016 -4.74539063 3.34916016 -6 3 C-6 2.67 -6 2.34 -6 2 C-4.02 2 -2.04 2 0 2 C0 1.34 0 0.68 0 0 Z " fill="#59482A" transform="translate(365,360)"/>
<path d="M0 0 C0 0.66 0 1.32 0 2 C4.455 1.505 4.455 1.505 9 1 C6.41464321 2.72357119 4.96188386 3.44735018 2.0625 4.1875 C1.39347656 4.36667969 0.72445312 4.54585938 0.03515625 4.73046875 C-2.24680888 5.03268678 -3.82026659 4.68756692 -6 4 C-5.34 4 -4.68 4 -4 4 C-4 3.34 -4 2.68 -4 2 C-4.66 1.67 -5.32 1.34 -6 1 C-3.92446352 0.4465236 -2.15634036 0 0 0 Z " fill="#745D34" transform="translate(119,360)"/>
<path d="M0 0 C0.66 0 1.32 0 2 0 C2.74926071 3.66305234 3.2380014 6.42355152 2 10 C0.68 10 -0.64 10 -2 10 C-1.33333333 6.66666667 -0.66666667 3.33333333 0 0 Z " fill="#816430" transform="translate(266,320)"/>
<path d="M0 0 C0.66 0.33 1.32 0.66 2 1 C2.32523926 4.57763189 2.42956587 6.39542581 0.3125 9.375 C-2.38790237 11.27258004 -3.77060081 11.35882213 -7 11 C-5.824375 10.2265625 -5.824375 10.2265625 -4.625 9.4375 C-1.44405752 6.4837677 -0.88506307 4.18393452 0 0 Z " fill="#D0A14F" transform="translate(180,332)"/>
<path d="M0 0 C0.33 0 0.66 0 1 0 C1.12117187 0.71027344 1.24234375 1.42054688 1.3671875 2.15234375 C1.53476563 3.07144531 1.70234375 3.99054688 1.875 4.9375 C2.03742188 5.85402344 2.19984375 6.77054687 2.3671875 7.71484375 C2.57601562 8.46894531 2.78484375 9.22304688 3 10 C3.66 10.33 4.32 10.66 5 11 C5 11.66 5 12.32 5 13 C3.68 13 2.36 13 1 13 C0.63447197 11.58622218 0.28304505 10.16879424 -0.0625 8.75 C-0.25972656 7.96109375 -0.45695313 7.1721875 -0.66015625 6.359375 C-1.01497267 3.89605178 -0.76877544 2.34395868 0 0 Z " fill="#BB9147" transform="translate(170,331)"/>
<path d="M0 0 C1.65 0 3.3 0 5 0 C5.5625 1.9375 5.5625 1.9375 6 4 C5 5 5 5 2.4375 5.0625 C1.2309375 5.0315625 1.2309375 5.0315625 0 5 C0 3.35 0 1.7 0 0 Z " fill="#0C0904" transform="translate(277,324)"/>
<path d="M0 0 C0.66 0 1.32 0 2 0 C2 2.66666667 2 5.33333333 2 8 C-1.465 6.02 -1.465 6.02 -5 4 C-4.34 3.34 -3.68 2.68 -3 2 C-2.34 2 -1.68 2 -1 2 C-0.67 1.34 -0.34 0.68 0 0 Z " fill="#1D1D1D" transform="translate(276,185)"/>
<path d="M0 0 C0.66 0 1.32 0 2 0 C2 2.64 2 5.28 2 8 C1.34 8 0.68 8 0 8 C0 7.34 0 6.68 0 6 C-1.65 6 -3.3 6 -5 6 C-5 5.01 -5 4.02 -5 3 C-3.35 3 -1.7 3 0 3 C0 2.01 0 1.02 0 0 Z " fill="#2A2A2A" transform="translate(318,233)"/>
<path d="M0 0 C1.32 0 2.64 0 4 0 C4 1.98 4 3.96 4 6 C2.68 6 1.36 6 0 6 C0 4.02 0 2.04 0 0 Z " fill="#141414" transform="translate(271,245)"/>
<path d="M0 0 C6.75 0.75 6.75 0.75 9 3 C9 4.32 9 5.64 9 7 C8.34 7 7.68 7 7 7 C6.690625 6.0409375 6.690625 6.0409375 6.375 5.0625 C5.10461791 2.65074923 5.10461791 2.65074923 1.875 2.25 C0.92625 2.1675 -0.0225 2.085 -1 2 C-0.67 1.34 -0.34 0.68 0 0 Z " fill="#DEAC54" transform="translate(331,337)"/>
<path d="M0 0 C0.66 0 1.32 0 2 0 C2 0.99 2 1.98 2 3 C4.31 3 6.62 3 9 3 C9 3.66 9 4.32 9 5 C6.03 5 3.06 5 0 5 C0 3.35 0 1.7 0 0 Z " fill="#DEAC54" transform="translate(249,329)"/>
<path d="M0 0 C0.66 0 1.32 0 2 0 C5 6.625 5 6.625 5 10 C4.34 10 3.68 10 3 10 C0 3.375 0 3.375 0 0 Z " fill="#141414" transform="translate(210,173)"/>
<path d="M0 0 C2.97 0.33 5.94 0.66 9 1 C7.515 2.485 7.515 2.485 6 4 C3.3125 3.6875 3.3125 3.6875 1 3 C0.67 2.01 0.34 1.02 0 0 Z " fill="#C19649" transform="translate(220,331)"/>
<path d="M0 0 C0 0.66 0 1.32 0 2 C-2.90600261 3.25664978 -4.79604584 4 -8 4 C-8.33 4.66 -8.66 5.32 -9 6 C-9 4.68 -9 3.36 -9 2 C-3.375 0 -3.375 0 0 0 Z " fill="#202020" transform="translate(320,258)"/>
<path d="M0 0 C0.33 0 0.66 0 1 0 C0.8125 3.3125 0.8125 3.3125 0 7 C-2.5625 8.9375 -2.5625 8.9375 -5 10 C-5.33 9.01 -5.66 8.02 -6 7 C-5.195625 6.5875 -4.39125 6.175 -3.5625 5.75 C-0.85890282 4.26547669 -0.85890282 4.26547669 -0.1875 1.8125 C-0.125625 1.214375 -0.06375 0.61625 0 0 Z " fill="#373737" transform="translate(236,173)"/>
<path d="M0 0 C0.66 0 1.32 0 2 0 C1.30058404 3.14737182 0.23921302 6.02588876 -1 9 C-1.33 9 -1.66 9 -2 9 C-2.125 5.625 -2.125 5.625 -2 2 C-1.34 1.34 -0.68 0.68 0 0 Z " fill="#1B1B1B" transform="translate(169,260)"/>
<path d="M0 0 C0.99 0 1.98 0 3 0 C1.55746343 3.36591866 -0.33264727 5.51047079 -3 8 C-3.33 7.01 -3.66 6.02 -4 5 C-2.25 2.3125 -2.25 2.3125 0 0 Z " fill="#262626" transform="translate(183,192)"/>
<path d="M0 0 C0.33 0.99 0.66 1.98 1 3 C-0.2065625 3.433125 -0.2065625 3.433125 -1.4375 3.875 C-4.1326468 4.73262568 -4.1326468 4.73262568 -5 7 C-5.66 7 -6.32 7 -7 7 C-7 6.01 -7 5.02 -7 4 C-4.69 2.68 -2.38 1.36 0 0 Z " fill="#1D1D1D" transform="translate(205,175)"/>
<path d="M0 0 C0.33 0.99 0.66 1.98 1 3 C0.195625 3.12375 -0.60875 3.2475 -1.4375 3.375 C-2.7059375 3.684375 -2.7059375 3.684375 -4 4 C-4.33 4.66 -4.66 5.32 -5 6 C-5.66 6 -6.32 6 -7 6 C-7 5.01 -7 4.02 -7 3 C-4.69 2.01 -2.38 1.02 0 0 Z " fill="#C89B4C" transform="translate(149,336)"/>
<path d="M0 0 C0.66 0 1.32 0 2 0 C1.34 2.97 0.68 5.94 0 9 C-0.99 8.67 -1.98 8.34 -3 8 C-2.34 7.67 -1.68 7.34 -1 7 C-1.020625 6.030625 -1.04125 5.06125 -1.0625 4.0625 C-1 1 -1 1 0 0 Z " fill="#181818" transform="translate(181,222)"/>
<path d="M0 0 C0.66 0.33 1.32 0.66 2 1 C1.67 3.31 1.34 5.62 1 8 C0.01 8 -0.98 8 -2 8 C-1.125 2.25 -1.125 2.25 0 0 Z " fill="#2A2A2A" transform="translate(260,176)"/>
<path d="M0 0 C0.33 1.32 0.66 2.64 1 4 C1.66 4 2.32 4 3 4 C3 4.66 3 5.32 3 6 C0.69 5.67 -1.62 5.34 -4 5 C-4 4.34 -4 3.68 -4 3 C-3.01 2.67 -2.02 2.34 -1 2 C-0.67 1.34 -0.34 0.68 0 0 Z " fill="#D6A651" transform="translate(304,337)"/>
<path d="M0 0 C0.66 0 1.32 0 2 0 C2.33 1.98 2.66 3.96 3 6 C2.01 6.66 1.02 7.32 0 8 C0 5.36 0 2.72 0 0 Z " fill="#292929" transform="translate(315,221)"/>
<path d="M0 0 C0.86625 0.556875 0.86625 0.556875 1.75 1.125 C-0.88904371 2.53877341 -3.32120629 3.49740135 -6.25 4.125 C-6.25 3.135 -6.25 2.145 -6.25 1.125 C-2.80384615 -1.09038462 -2.80384615 -1.09038462 0 0 Z " fill="#FCF4E6" transform="translate(141.25,160.875)"/>
<path d="M0 0 C0.66 0.66 1.32 1.32 2 2 C1.1875 4.4375 1.1875 4.4375 0 7 C-0.99 7.33 -1.98 7.66 -3 8 C-1.125 1.125 -1.125 1.125 0 0 Z " fill="#262626" transform="translate(272,172)"/>
<path d="M0 0 C1.32 0.33 2.64 0.66 4 1 C3.67 2.65 3.34 4.3 3 6 C2.34 6 1.68 6 1 6 C0.67 4.02 0.34 2.04 0 0 Z " fill="#E2AF55" transform="translate(318,341)"/>
<path d="M0 0 C-0.33 0.99 -0.66 1.98 -1 3 C-4.0625 4.1875 -4.0625 4.1875 -7 5 C-6 2 -6 2 -4.0625 0.8125 C-2 0 -2 0 0 0 Z " fill="#1F1F1F" transform="translate(303,209)"/>
<path d="M0 0 C-0.66 1.32 -1.32 2.64 -2 4 C-2.33 3.67 -2.66 3.34 -3 3 C-3.99 3.99 -4.98 4.98 -6 6 C-6 3 -6 3 -4.6875 1.3125 C-3 0 -3 0 0 0 Z " fill="#282828" transform="translate(194,184)"/>
<path d="M0 0 C0.33 0.66 0.66 1.32 1 2 C2.32 2 3.64 2 5 2 C5 2.66 5 3.32 5 4 C3.02 4.33 1.04 4.66 -1 5 C-0.67 3.35 -0.34 1.7 0 0 Z " fill="#1B1B1B" transform="translate(226,179)"/>
</svg>
